<?xml version="1.0" standalone="no"?>
<!DOCTYPE svg PUBLIC "-//W3C//DTD SVG 20010904//EN"
 "http://www.w3.org/TR/2001/REC-SVG-20010904/DTD/svg10.dtd">
<svg version="1.0" xmlns="http://www.w3.org/2000/svg"
 width="959.000000pt" height="767.000000pt" viewBox="0 0 959.000000 767.000000"
 preserveAspectRatio="xMidYMid meet">

<g transform="translate(0.000000,767.000000) scale(0.100000,-0.100000)"
fill="#fff" stroke="none">
<path d="M3150 7659 c-897 -101 -1602 -806 -1699 -1701 -41 -368 26 -731 196
-1068 283 -561 811 -942 1436 -1034 137 -21 407 -21 546 -1 764 112 1384 663
1580 1406 80 304 83 657 7 958 -198 783 -863 1358 -1666 1440 -117 13 -290 12
-400 0z"/>
<path d="M7202 4640 c-130 -14 -271 -43 -302 -61 -17 -11 -35 -31 -40 -45 -6
-14 -10 -130 -10 -257 l0 -232 -102 -44 c-122 -51 -253 -126 -367 -211 -46
-34 -89 -59 -96 -56 -7 2 -100 54 -206 115 -194 112 -223 122 -272 100 -50
-23 -223 -246 -325 -419 -106 -179 -219 -464 -207 -519 9 -43 44 -69 249 -186
l188 -108 -6 -46 c-24 -162 -24 -363 -1 -546 l6 -50 -208 -120 c-192 -111
-209 -123 -222 -158 -13 -36 -12 -44 18 -135 73 -217 241 -517 395 -700 139
-167 132 -166 393 -14 105 61 196 113 201 114 5 2 43 -22 85 -54 114 -84 239
-157 362 -210 l110 -48 5 -242 c3 -134 9 -251 13 -260 15 -29 50 -45 133 -62
265 -52 556 -56 811 -12 138 25 162 34 183 69 18 29 20 52 20 270 0 229 1 239
20 244 42 11 219 96 292 140 42 25 115 74 161 109 l85 62 198 -116 c252 -146
257 -147 346 -53 179 191 349 478 447 756 55 154 54 156 -208 305 l-202 115 5
35 c22 141 28 294 17 411 -6 68 -14 140 -17 160 l-6 35 197 113 c108 63 205
123 216 134 34 37 33 74 -6 187 -79 228 -226 486 -390 685 -83 101 -115 125
-162 125 -18 0 -103 -43 -228 -115 -110 -63 -203 -115 -207 -115 -4 0 -44 28
-89 62 -107 81 -275 176 -383 218 l-86 34 0 243 0 243 -27 30 c-24 26 -42 33
-128 50 -200 38 -460 50 -653 30z m453 -1553 c234 -77 416 -269 481 -507 24
-89 25 -272 1 -360 -115 -426 -559 -655 -968 -499 -209 80 -383 277 -439 495
-27 104 -27 254 0 358 66 258 263 456 524 527 105 28 291 22 401 -14z"/>
<path d="M1880 3349 c-970 -63 -1754 -812 -1865 -1780 -13 -109 -16 -223 -13
-560 4 -412 4 -426 27 -494 41 -125 89 -203 181 -296 94 -95 174 -145 298
-188 l77 -26 2765 0 2765 0 75 23 c65 21 159 63 197 90 10 6 10 23 -2 78 -8
38 -15 110 -15 159 l0 90 -50 28 -50 27 -88 -49 c-160 -91 -286 -116 -430 -87
-155 31 -256 94 -378 234 -203 232 -371 509 -487 803 -70 175 -87 248 -87 361
0 226 105 395 325 526 l80 48 3 60 2 59 -87 50 c-158 91 -243 189 -296 344
-27 78 -29 92 -25 200 4 111 14 154 62 272 9 21 -33 28 -239 36 l-160 6 -80
-35 c-175 -77 -396 -141 -621 -180 -176 -31 -618 -33 -789 -5 -223 37 -410 90
-617 173 l-110 44 -126 -1 c-70 -1 -179 -5 -242 -10z"/>
</g>
</svg>
